<?xml version="1.0" encoding="utf-8"?>
<!-- Generator: Adobe Illustrator 20.1.0, SVG Export Plug-In . SVG Version: 6.00 Build 0)  -->
<svg version="1.1" id="Layer_1" xmlns="http://www.w3.org/2000/svg" xmlns:xlink="http://www.w3.org/1999/xlink" x="0px" y="0px"
	 viewBox="0 0 59 59" style="enable-background:new 0 0 59 59;" xml:space="preserve">
<style type="text/css">
	.st0{fill:#5079BB;}
	.st1{fill:#597CD9;}
	.st2{fill:#FBB230;}
	.st3{fill:#FFFFFF;}
</style>
<g>
	<path class="st0" d="M29.5,6.3c0-2.1,0-4.2,0-6.3c0,0,0,0,0,0L29.5,6.3C29.5,6.3,29.5,6.3,29.5,6.3z"/>
	<path class="st1" d="M51.6,14c-3.5-1.1-7.5,0.9-7.3,0.4c1.9-4.9,0.9-8.9-3.1-11.7C37.8,0.2,32.7,0,29.5,0c0,2.1,0,4.2,0,6.3
		c2,0.1,8,0.6,8.9,3.2c1,2.9-3.1,9.1-3.9,9.7c-0.8,0.6-2.6-0.9-5-0.9c0,6.8,0,13.5,0,20.2l0,2c2.4,0,4.2-1.3,5-0.7
		c0.8,0.6,5,6.8,3.9,9.7c-1,2.6-6.9,3.1-8.9,3.2l0,6.4c8.4,0,12.5-2.9,14.9-6.4c2.4-3.5-0.6-8.6,0-8.3c1.9,1,6,1.8,8.2,0
		c2.7-2.2,6.4-5.2,6.4-15.5C59,21.4,55.1,15.1,51.6,14z M49.4,38.6c-2.9,1-8.7-3.3-9.7-3.9c-1.1-0.6,0.8-2.9,0.9-5.3
		c0-2.4-1.4-4.4-0.8-5.2c0.6-0.8,6.8-5,9.7-3.9c2.9,1,3.2,7.9,3.2,9.4C52.6,31.1,52.3,37.6,49.4,38.6z"/>
	<path class="st0" d="M29.5,52.6c0,2.1,0,4.2,0,6.4c0,0,0,0,0,0L29.5,52.6C29.5,52.6,29.5,52.6,29.5,52.6z"/>
	<path class="st0" d="M29.5,40.4l0-2C29.5,39.1,29.5,39.8,29.5,40.4C29.5,40.4,29.5,40.4,29.5,40.4z"/>
	<path class="st0" d="M29.5,38.5c0-6.7,0-13.4,0-20.2c0,0,0,0,0,0L29.5,38.5z"/>
	<path class="st2" d="M29.1,52.6c-1.4,0-7.9-0.3-8.9-3.2c-1-2.9,3.1-8.8,3.9-9.7c0.6-0.7,3,0.7,5.4,0.7c0,0,0,0,0,0
		c0-7.4,0-14.8,0-22.2c0,0,0,0,0,0c-2.4,0-4.8,1.9-5.4,0.9c-0.6-1-4.9-6.8-3.9-9.7c1-2.9,7.5-3.2,8.9-3.2c0.1,0,0.3,0,0.4,0
		c0-2.1,0-4.2,0-6.3c0,0,0,0,0,0c-0.5,0-0.9,0-1.2,0c-3,0-9.7,1.4-12.5,4.3c-2.9,3.1-1.8,7.4-1.1,10.5c0,0-4-1.9-8-0.7
		C4.5,14.7,0.3,18.3,0,28.9c-0.3,8.7,3,14.5,6.5,15.8c4.8,1.7,9-1,8.7-0.8c-0.3,0.2-1.8,2-1.2,7.8c0.3,2.9,6.5,7.3,15.5,7.3
		c0-2.1,0-4.2,0-6.4C29.3,52.6,29.2,52.6,29.1,52.6z M19,34.7c-1,0.6-6.8,4.9-9.7,3.9c-2.9-1-3.2-7.5-3.2-8.9c0-1.4,0.4-8.3,3.2-9.4
		c2.9-1,9.1,3.1,9.7,3.9c0.6,0.8-0.8,2.8-0.8,5.2C18.2,31.8,20.1,34.1,19,34.7z"/>
	<ellipse class="st3" cx="29.5" cy="28.9" rx="5.3" ry="5.3"/>
</g>
</svg>
